<?xml version="1.0" standalone="no"?>
<!DOCTYPE svg PUBLIC "-//W3C//DTD SVG 20010904//EN"
 "http://www.w3.org/TR/2001/REC-SVG-20010904/DTD/svg10.dtd">
<svg version="1.0" xmlns="http://www.w3.org/2000/svg"
 width="144.000000pt" height="144.000000pt" viewBox="0 0 144.000000 144.000000"
 preserveAspectRatio="xMidYMid meet">
<metadata>
Created by potrace 1.16, written by Peter Selinger 2001-2019
</metadata>
<g transform="translate(0.000000,144.000000) scale(0.006000,-0.006000)"
fill="#000000" stroke="none">
<path d="M10755 23310 c-11 -5 -34 -9 -52 -9 -17 -1 -34 -5 -38 -10 -3 -5 -20
-13 -37 -17 -18 -3 -39 -10 -48 -14 -177 -87 -268 -149 -361 -247 -100 -105
-163 -206 -214 -343 -9 -25 -20 -54 -25 -65 -4 -11 -15 -38 -23 -60 -37 -95
-43 -107 -71 -120 -16 -8 -37 -15 -48 -15 -10 0 -26 -4 -36 -9 -9 -5 -37 -17
-62 -26 -25 -9 -53 -21 -62 -26 -10 -5 -25 -9 -33 -9 -8 0 -23 -4 -33 -10 -16
-8 -72 -32 -117 -50 -11 -4 -47 -20 -80 -35 -33 -15 -69 -31 -80 -35 -95 -37
-425 -209 -558 -292 -43 -26 -81 -48 -83 -48 -3 0 -10 -5 -17 -10 -7 -6 -68
-47 -137 -93 -105 -70 -263 -183 -320 -230 -8 -7 -37 -30 -65 -52 -188 -150
-559 -508 -682 -655 -29 -36 -78 -94 -109 -130 -62 -72 -145 -179 -217 -278
-26 -37 -54 -75 -62 -87 -40 -55 -115 -167 -115 -172 0 -4 -11 -21 -25 -39
-63 -82 -291 -501 -338 -621 -16 -41 -33 -80 -83 -191 -13 -29 -24 -57 -24
-62 0 -6 -4 -18 -9 -28 -6 -9 -22 -51 -36 -92 -15 -41 -30 -84 -35 -95 -4 -11
-20 -60 -35 -110 -15 -49 -31 -100 -36 -113 -5 -13 -9 -32 -9 -43 0 -10 -4
-27 -9 -37 -5 -9 -14 -37 -20 -62 -31 -119 -37 -143 -61 -274 -6 -33 -13 -63
-17 -69 -7 -12 -34 -187 -53 -347 -6 -52 -13 -102 -16 -110 -11 -29 -26 -245
-44 -640 -6 -129 -13 -245 -15 -256 -4 -20 -9 -21 -97 -17 -164 9 -651 -15
-700 -33 -116 -44 -161 -77 -201 -148 -74 -133 -77 -253 -9 -418 17 -41 91
-117 136 -140 22 -11 70 -29 106 -39 63 -18 247 -19 6375 -19 l6311 0 59 21
c164 57 234 139 265 308 11 58 11 82 2 117 -7 24 -12 52 -12 62 0 53 -99 185
-165 220 -83 44 -126 52 -350 62 -121 5 -291 10 -377 10 l-158 0 0 108 c0 59
-5 163 -10 232 -6 69 -15 199 -21 290 -18 284 -42 520 -54 540 -6 10 -21 105
-31 205 -3 28 -10 54 -15 60 -5 5 -9 22 -9 39 0 16 -7 54 -16 85 -9 31 -20 73
-25 94 -17 68 -31 122 -44 162 -7 22 -18 60 -25 85 -7 25 -16 54 -20 65 -5 11
-11 29 -13 40 -5 20 -42 123 -57 160 -4 11 -15 40 -25 65 -31 79 -33 84 -55
135 -12 28 -28 64 -35 80 -36 85 -52 120 -106 230 -75 152 -160 309 -213 394
-14 22 -26 45 -26 50 0 5 -4 11 -8 13 -5 2 -39 50 -77 108 -37 58 -80 123 -96
145 -17 22 -41 58 -56 80 -14 22 -29 42 -33 45 -3 3 -21 25 -38 50 -57 80
-160 210 -211 265 -20 22 -65 74 -100 115 -81 94 -253 266 -351 350 -41 36
-84 74 -95 85 -11 11 -42 38 -70 60 -27 22 -59 48 -70 59 -11 10 -42 35 -70
56 -27 21 -83 64 -123 94 -40 31 -76 56 -80 56 -3 0 -16 10 -28 21 -13 12 -32
27 -43 33 -10 6 -59 38 -108 71 -48 33 -92 62 -98 64 -5 2 -46 27 -90 56 -44
28 -87 54 -95 58 -8 4 -31 17 -50 29 -50 30 -345 178 -410 206 -30 13 -62 27
-71 32 -9 4 -63 27 -120 50 -57 23 -113 45 -124 50 -11 5 -40 16 -65 24 -211
71 -235 82 -238 107 -2 13 -8 28 -13 34 -5 5 -9 17 -9 27 0 10 -4 26 -10 36
-5 9 -34 69 -65 132 -70 146 -82 166 -143 249 -104 140 -263 265 -407 321 -26
11 -109 36 -161 49 -51 13 -1879 14 -1909 1z m1750 -806 c68 -33 134 -104 158
-171 16 -47 17 -135 17 -1281 0 -810 3 -1233 10 -1237 6 -3 10 -15 10 -27 0
-81 160 -234 273 -261 54 -13 150 -13 204 0 124 30 237 143 282 284 8 25 11
281 11 902 0 476 4 868 9 871 4 3 26 -3 47 -13 38 -18 99 -45 139 -61 51 -21
356 -173 410 -205 33 -19 67 -38 75 -42 25 -11 261 -163 315 -201 67 -48 239
-175 245 -182 3 -3 28 -23 55 -45 133 -105 358 -317 468 -440 44 -49 101 -112
127 -140 25 -27 51 -57 56 -66 5 -9 26 -36 46 -60 48 -58 81 -101 176 -234 72
-100 222 -330 222 -339 0 -3 19 -37 43 -78 55 -93 184 -356 227 -463 4 -11 15
-38 25 -60 9 -22 20 -49 25 -60 4 -11 13 -36 20 -55 7 -19 16 -44 20 -55 5
-11 16 -45 25 -75 10 -30 21 -63 26 -72 5 -10 9 -27 9 -38 0 -11 4 -28 9 -38
5 -9 16 -44 25 -77 10 -33 22 -74 27 -91 5 -17 9 -39 9 -49 0 -10 4 -32 9 -49
30 -98 54 -234 80 -466 7 -52 14 -102 17 -110 18 -44 42 -736 27 -751 -5 -5
-1911 -9 -4784 -9 l-4774 0 -3 252 c-1 146 2 289 8 338 7 47 16 130 21 185 18
189 43 368 58 409 6 15 11 42 11 61 0 19 5 37 10 40 6 3 10 26 10 50 0 24 5
47 10 50 6 3 10 16 10 28 0 12 6 42 14 67 8 25 20 65 27 90 21 78 61 204 70
222 5 10 9 25 9 33 0 8 4 23 9 33 5 9 17 37 26 62 10 25 22 56 28 70 5 14 13
34 18 45 27 68 50 118 125 270 79 160 111 221 162 305 12 19 25 42 28 50 4 8
27 43 51 77 23 34 43 64 43 67 0 6 171 246 223 312 181 232 347 413 552 599
61 55 112 102 115 105 8 8 152 124 181 145 115 87 144 110 147 117 2 4 8 8 13
8 5 0 40 23 79 50 39 28 72 50 75 50 4 0 36 20 190 117 25 16 460 232 495 246
14 5 36 14 50 19 14 6 39 16 55 24 17 7 39 14 50 16 20 3 20 -4 25 -872 4
-520 10 -887 16 -905 44 -136 165 -242 315 -275 54 -12 73 -11 164 7 95 19
222 122 261 211 8 20 21 46 27 57 9 15 13 337 14 1260 2 940 6 1250 15 1280
24 79 68 127 156 171 l47 23 757 0 757 1 56 -26z"/>
<path d="M16640 15344 c-79 -15 -149 -52 -201 -105 -68 -70 -109 -167 -109
-260 0 -30 -5 -70 -10 -90 -6 -20 -15 -70 -21 -110 -29 -196 -46 -296 -53
-308 -4 -5 -11 -31 -17 -58 -35 -164 -45 -206 -56 -233 -19 -47 -33 -96 -33
-118 0 -11 -4 -24 -10 -27 -5 -3 -10 -15 -10 -25 0 -17 -18 -66 -41 -112 -5
-10 -9 -25 -9 -33 0 -8 -4 -23 -9 -33 -5 -9 -17 -37 -26 -62 -29 -75 -32 -83
-55 -135 -12 -27 -29 -66 -37 -85 -76 -175 -208 -419 -316 -588 -26 -40 -47
-75 -47 -78 0 -2 -11 -17 -25 -32 -14 -15 -25 -31 -25 -36 0 -4 -12 -23 -27
-41 -16 -18 -46 -59 -68 -90 -22 -32 -45 -63 -50 -69 -6 -6 -28 -33 -50 -61
-203 -255 -533 -576 -805 -781 -127 -96 -238 -174 -248 -174 -6 0 -12 -4 -14
-8 -1 -5 -47 -36 -100 -70 -95 -61 -109 -69 -218 -129 -126 -70 -322 -164
-470 -225 -14 -6 -38 -16 -55 -23 -16 -7 -43 -18 -60 -25 -16 -7 -38 -16 -47
-21 -10 -5 -27 -9 -37 -9 -11 0 -22 -4 -26 -9 -3 -5 -20 -13 -37 -17 -18 -3
-39 -10 -48 -14 -8 -5 -35 -13 -60 -20 -25 -7 -61 -18 -80 -25 -69 -24 -107
-35 -128 -35 -11 0 -24 -4 -27 -10 -3 -5 -20 -10 -36 -10 -17 0 -39 -5 -50
-11 -11 -6 -44 -15 -72 -20 -29 -6 -74 -14 -102 -20 -27 -5 -78 -14 -113 -19
-35 -5 -68 -12 -74 -16 -12 -8 -79 -16 -283 -36 -160 -16 -713 -16 -880 0
-186 17 -283 30 -297 39 -7 4 -38 11 -68 15 -109 15 -197 32 -290 57 -25 7
-62 17 -82 22 -83 20 -125 32 -158 44 -19 7 -55 18 -80 25 -46 12 -61 18 -115
40 -16 6 -50 19 -75 27 -25 8 -61 21 -80 29 -46 20 -75 32 -102 43 -89 34
-416 195 -485 238 -29 18 -55 33 -58 33 -7 0 -146 86 -210 130 -22 15 -58 39
-80 54 -22 14 -45 30 -51 35 -6 5 -28 20 -50 35 -21 14 -60 43 -86 63 -25 21
-72 58 -104 83 -32 25 -69 56 -83 69 -15 13 -55 47 -91 76 -74 60 -337 326
-426 430 -32 39 -61 72 -64 75 -6 5 -107 132 -155 194 -16 21 -39 53 -50 71
-11 17 -26 38 -33 46 -17 18 -181 268 -193 294 -5 11 -13 27 -19 35 -35 54
-100 174 -100 185 0 7 -3 15 -7 17 -8 3 -22 30 -96 188 -62 132 -87 188 -87
200 0 5 -4 18 -9 28 -9 18 -18 38 -46 112 -35 92 -73 199 -86 248 -14 49 -26
92 -44 152 -17 55 -28 103 -43 183 -5 23 -11 47 -15 53 -9 16 -30 133 -56 314
-6 41 -15 93 -21 115 -5 22 -10 61 -10 87 0 26 -5 50 -10 53 -6 3 -10 15 -10
25 0 29 -37 90 -83 138 -117 122 -318 144 -492 54 -45 -23 -119 -102 -139
-147 -9 -22 -21 -48 -26 -57 -13 -24 -13 -244 0 -288 6 -19 15 -73 21 -120 17
-137 38 -262 59 -345 6 -27 16 -68 22 -90 5 -22 14 -54 19 -71 5 -17 9 -41 9
-55 1 -13 7 -35 15 -49 8 -14 14 -37 15 -52 0 -15 5 -30 10 -33 6 -3 10 -17
10 -31 0 -13 4 -32 9 -42 5 -9 21 -57 36 -107 15 -49 31 -99 35 -110 31 -81
43 -112 51 -127 5 -10 9 -24 9 -31 0 -7 11 -37 25 -65 14 -29 25 -56 25 -62 0
-6 4 -18 9 -28 9 -17 46 -99 83 -182 11 -25 27 -58 36 -75 8 -16 19 -37 23
-45 22 -48 50 -103 84 -165 113 -208 118 -216 128 -229 21 -30 57 -88 57 -92
0 -17 333 -492 360 -514 3 -3 19 -23 35 -45 17 -22 32 -42 35 -45 3 -3 41 -48
85 -100 99 -117 445 -465 544 -545 190 -156 448 -354 494 -379 12 -6 74 -46
137 -87 187 -122 304 -189 535 -303 155 -77 203 -99 305 -143 36 -15 41 -18
120 -48 25 -10 54 -21 65 -25 33 -14 137 -50 190 -67 28 -9 82 -26 120 -38 70
-22 122 -37 193 -54 20 -6 60 -17 89 -25 28 -9 63 -16 77 -16 14 0 27 -4 30
-9 3 -4 27 -11 53 -14 27 -3 84 -13 128 -23 152 -31 407 -61 720 -85 347 -26
1038 18 1350 86 44 9 99 21 123 26 108 23 180 41 277 69 17 5 46 13 65 19 71
20 119 37 126 44 4 4 18 7 30 7 13 0 26 5 29 10 3 6 15 10 25 10 11 0 36 7 57
16 21 9 48 21 61 25 12 5 32 13 45 18 12 5 54 21 92 36 100 39 105 41 155 63
209 92 460 218 572 289 21 13 40 23 42 23 6 0 111 65 236 147 112 73 127 83
245 171 50 37 100 74 111 82 26 18 155 123 175 142 8 7 43 37 79 67 83 69 423
410 475 476 22 28 60 73 85 102 25 28 65 77 90 108 25 31 56 71 70 88 55 68
254 358 296 432 7 11 40 68 75 126 77 127 226 424 304 604 10 22 26 58 36 79
11 22 19 46 19 53 0 7 4 21 9 31 24 44 64 153 81 217 5 17 17 55 28 85 11 30
25 75 32 100 12 43 23 79 49 161 6 19 11 47 11 62 0 14 5 29 10 32 6 3 10 19
10 35 0 16 5 41 11 57 14 38 41 174 58 299 4 34 11 66 15 72 11 19 29 190 33
329 5 151 -6 196 -62 272 -38 53 -106 111 -129 111 -9 0 -16 5 -16 10 0 6 -9
10 -21 10 -11 0 -28 4 -38 9 -21 11 -155 22 -191 15z"/>
<path d="M7540 9151 c-80 -4 -151 -10 -158 -15 -7 -4 -54 -12 -105 -17 -168
-16 -373 -45 -388 -55 -6 -3 -36 -10 -67 -15 -108 -18 -209 -40 -262 -57 -19
-6 -55 -16 -80 -22 -25 -6 -58 -15 -75 -20 -121 -33 -152 -43 -167 -51 -10 -5
-25 -9 -33 -9 -8 0 -23 -4 -33 -9 -9 -5 -53 -22 -97 -36 -44 -15 -96 -33 -115
-41 -19 -9 -46 -20 -60 -26 -14 -6 -33 -14 -42 -19 -10 -5 -22 -9 -28 -9 -5 0
-35 -12 -67 -26 -75 -34 -242 -113 -268 -126 -11 -6 -60 -32 -110 -58 -49 -26
-112 -59 -140 -75 -27 -15 -59 -33 -70 -39 -10 -6 -25 -15 -31 -21 -7 -5 -35
-23 -63 -40 -57 -33 -350 -236 -398 -275 -17 -14 -71 -56 -119 -95 -49 -38
-111 -91 -139 -116 -27 -25 -70 -63 -95 -85 -91 -78 -245 -232 -334 -334 -50
-57 -102 -116 -115 -130 -13 -14 -35 -41 -50 -60 -14 -19 -38 -48 -52 -65 -74
-83 -409 -560 -409 -581 0 -2 -11 -23 -26 -45 -25 -40 -34 -57 -91 -159 -60
-108 -190 -373 -226 -460 -5 -14 -15 -38 -22 -55 -22 -52 -33 -79 -45 -115 -7
-19 -18 -48 -25 -65 -16 -38 -45 -121 -55 -160 -5 -16 -18 -55 -29 -85 -12
-30 -21 -65 -21 -77 0 -12 -4 -24 -9 -27 -5 -3 -11 -20 -14 -38 -7 -45 -28
-119 -38 -140 -5 -10 -9 -31 -9 -47 0 -17 -4 -40 -9 -53 -26 -68 -61 -254 -80
-420 -5 -42 -12 -82 -16 -88 -10 -15 -23 -172 -35 -410 -10 -204 -4 -370 19
-470 16 -71 36 -138 44 -146 4 -4 7 -16 7 -26 0 -10 4 -26 9 -36 6 -9 33 -64
61 -121 28 -58 75 -139 105 -180 54 -77 191 -217 255 -261 19 -14 40 -28 45
-32 52 -42 259 -148 287 -148 9 0 20 -4 23 -10 3 -5 17 -10 31 -10 14 0 35 -5
46 -11 12 -6 51 -16 87 -22 78 -13 16184 -16 16266 -3 28 4 68 14 90 21 22 7
60 18 85 25 148 41 353 159 483 279 60 56 187 211 187 229 0 5 6 14 13 20 7 6
34 55 61 109 26 54 52 106 57 115 5 10 9 27 9 37 0 11 5 23 10 26 6 3 10 15
10 27 0 11 6 41 14 67 8 25 20 69 26 97 13 62 14 553 0 609 -5 22 -10 65 -10
95 -1 30 -5 75 -11 100 -5 25 -14 77 -19 115 -11 85 -26 179 -35 220 -12 56
-37 170 -45 205 -5 19 -14 58 -20 85 -7 28 -18 70 -25 95 -8 25 -18 63 -24 85
-22 83 -44 150 -52 159 -5 6 -9 22 -9 37 0 15 -4 31 -10 34 -5 3 -10 16 -10
29 0 12 -4 26 -8 32 -5 5 -17 32 -26 59 -10 28 -21 59 -26 70 -4 11 -26 65
-48 120 -71 176 -209 463 -269 557 -12 21 -23 40 -23 42 0 19 -239 395 -264
415 -9 8 -16 18 -16 23 0 5 -16 28 -35 51 -19 22 -35 46 -35 53 0 7 -3 14 -7
16 -8 3 -104 121 -154 188 -15 19 -35 44 -45 55 -11 11 -48 54 -83 95 -87 101
-327 341 -426 425 -44 38 -82 71 -85 75 -3 3 -27 24 -55 45 -27 22 -61 50 -75
63 -14 13 -61 49 -105 80 -44 31 -88 64 -97 72 -29 27 -297 203 -378 249 -14
7 -36 20 -50 28 -102 58 -185 102 -315 166 -157 78 -256 124 -340 157 -11 4
-36 15 -55 23 -19 8 -53 21 -75 28 -22 7 -44 17 -49 21 -6 4 -18 8 -27 8 -9 0
-30 7 -45 15 -16 8 -37 15 -46 15 -9 0 -20 5 -23 10 -3 6 -17 10 -31 10 -13 0
-32 4 -42 9 -9 5 -44 17 -77 26 -33 10 -68 21 -77 26 -10 5 -31 9 -47 9 -17 0
-33 5 -36 10 -3 6 -21 10 -39 10 -17 0 -36 4 -42 9 -10 11 -127 37 -266 60
-31 5 -61 12 -67 15 -15 9 -122 25 -386 55 -49 6 -117 16 -150 22 -46 9 -1061
13 -4255 14 -2307 1 -4260 -1 -4340 -4z m8610 -818 c58 -6 112 -13 121 -17 9
-4 49 -11 90 -17 135 -18 224 -34 324 -59 28 -6 67 -16 88 -21 66 -16 121 -31
162 -44 22 -7 60 -18 85 -25 25 -7 70 -21 100 -32 30 -10 78 -26 105 -34 28
-9 58 -20 67 -25 10 -5 22 -9 28 -9 5 0 35 -12 67 -26 32 -14 67 -30 78 -34
84 -33 418 -199 485 -241 14 -9 68 -42 120 -74 85 -52 347 -230 360 -244 3 -4
28 -24 55 -46 219 -174 596 -551 721 -720 16 -22 34 -45 39 -51 6 -6 31 -39
55 -73 25 -35 54 -75 66 -90 23 -30 157 -239 167 -261 4 -8 17 -31 29 -50 37
-61 77 -133 110 -200 18 -36 36 -66 41 -68 4 -2 7 -10 7 -17 0 -7 9 -30 20
-52 33 -65 70 -146 70 -155 0 -4 11 -31 24 -60 14 -29 32 -77 42 -106 9 -29
20 -55 25 -58 5 -3 9 -14 9 -25 0 -10 4 -27 9 -37 5 -9 14 -35 20 -57 7 -22
18 -56 26 -75 12 -34 26 -83 46 -165 6 -22 16 -62 24 -90 8 -27 17 -63 20 -80
18 -90 25 -126 35 -183 5 -35 13 -69 16 -74 10 -16 33 -213 53 -443 6 -71 13
-149 17 -173 6 -41 -8 -143 -26 -187 -11 -28 -39 -86 -55 -114 -29 -52 -186
-191 -215 -191 -6 0 -18 -4 -28 -9 -9 -5 -33 -14 -53 -20 -51 -16 -15967 -16
-16018 0 -20 6 -44 15 -53 20 -10 5 -22 9 -27 9 -20 0 -103 64 -159 121 -63
64 -112 153 -132 238 -13 55 -3 266 20 436 6 39 12 95 15 125 8 105 24 199 66
390 5 25 14 65 19 90 5 25 16 70 25 100 9 30 19 66 22 80 2 14 8 34 13 45 4
11 24 72 44 135 20 63 44 133 53 155 26 67 31 79 43 115 7 19 21 53 30 75 10
22 26 58 35 80 32 74 89 190 112 227 13 21 23 44 23 53 0 8 4 15 8 15 4 0 13
12 19 28 7 15 28 54 47 87 20 33 39 67 43 75 14 32 238 360 263 388 9 10 33
39 52 64 179 234 545 600 763 763 22 16 49 38 61 48 18 15 79 58 209 147 148
101 432 257 605 333 19 8 55 24 80 35 25 10 77 32 115 46 39 15 78 32 87 37
10 5 25 9 33 9 8 0 23 4 33 9 19 11 141 51 212 71 25 6 63 18 85 26 23 8 50
14 62 14 12 0 25 5 28 10 3 6 19 10 35 10 16 0 39 4 52 9 36 14 228 54 313 66
22 3 74 10 116 15 41 5 88 14 103 20 15 5 57 11 94 11 37 1 81 5 97 9 46 12
8480 4 8605 -7z"/>
</g>
</svg>
