<?xml version="1.0" standalone="no"?>
<!DOCTYPE svg PUBLIC "-//W3C//DTD SVG 20010904//EN"
 "http://www.w3.org/TR/2001/REC-SVG-20010904/DTD/svg10.dtd">
<svg version="1.0" xmlns="http://www.w3.org/2000/svg"
 width="1024.000000pt" height="1024.000000pt" viewBox="0 0 1024.000000 1024.000000"
 preserveAspectRatio="xMidYMid meet">

<g transform="translate(0.000000,1024.000000) scale(0.100000,-0.100000)"
fill="#000000" stroke="none">
<path d="M4540 9941 c-141 -45 -227 -136 -290 -305 l-21 -54 -89 -32 c-116
-42 -322 -142 -430 -210 -488 -304 -860 -794 -1010 -1328 -54 -190 -76 -344
-96 -673 l-6 -96 -161 -5 c-182 -6 -220 -15 -258 -69 -20 -28 -24 -46 -24
-101 0 -72 14 -102 69 -142 l27 -21 2732 -2 2732 -3 39 23 c101 57 109 209 16
279 -35 25 -122 38 -267 38 l-123 0 0 63 c0 98 -18 322 -36 437 -69 463 -303
921 -643 1261 -240 238 -539 431 -848 544 -57 21 -103 43 -103 49 0 6 -20 52
-46 103 -56 113 -122 184 -213 227 l-66 31 -415 2 c-375 2 -420 1 -470 -16z
m828 -355 l37 -34 5 -554 c6 -614 1 -578 72 -631 63 -48 144 -44 208 10 55 46
55 40 60 455 l5 388 99 -45 c424 -191 779 -536 986 -960 127 -259 200 -587
200 -899 l0 -76 -2046 0 -2047 0 6 173 c6 186 30 347 73 500 141 491 499 937
956 1190 68 38 223 107 239 107 5 0 9 -154 9 -370 0 -397 2 -411 51 -457 67
-62 162 -66 225 -11 67 59 64 33 64 618 0 581 0 577 58 612 24 16 64 17 365
18 l337 0 38 -34z"/>
<path d="M2787 6536 c-46 -17 -74 -41 -94 -81 -21 -40 -13 -161 22 -325 91
-428 311 -842 614 -1154 469 -481 1093 -730 1761 -702 343 14 597 77 905 225
659 316 1126 914 1271 1628 14 70 28 167 31 214 5 78 3 90 -17 128 -58 103
-209 108 -282 10 -12 -16 -24 -61 -33 -125 -89 -634 -431 -1152 -972 -1470
-572 -337 -1274 -363 -1868 -69 -157 78 -248 136 -380 242 -398 321 -652 771
-729 1292 -10 68 -22 114 -34 130 -42 57 -128 82 -195 57z"/>
<path d="M3200 3900 c-755 -60 -1395 -454 -1778 -1095 -155 -260 -248 -523
-293 -830 -23 -156 -25 -347 -4 -425 53 -200 222 -364 414 -400 36 -7 1209
-10 3495 -10 3048 0 3449 2 3501 15 199 51 348 198 400 395 33 124 10 419 -50
656 -213 835 -854 1456 -1696 1644 -249 56 -163 54 -2104 56 -984 1 -1833 -2
-1885 -6z m3730 -355 c436 -59 800 -231 1098 -519 337 -325 525 -721 577
-1212 17 -162 6 -212 -62 -276 -66 -63 233 -58 -3515 -58 -3294 0 -3414 1
-3454 19 -50 23 -107 88 -123 140 -9 31 -8 69 3 178 49 467 220 840 531 1162
303 313 657 493 1108 561 115 17 223 18 1927 19 1506 0 1822 -2 1910 -14z"/>
</g>
</svg>
